<?xml version="1.0" encoding="UTF-8"?><svg id="Layer_1" xmlns="http://www.w3.org/2000/svg" viewBox="0 0 250 250"><defs><style>.cls-1{fill:#010101;}</style></defs><path class="cls-1" d="M184.5,54.01L133.75,3.25c-2.08-2.08-4.8-3.1-7.52-3.07-.44,0-.87.02-1.3.07-3.43.25-6.39,2.14-8.12,4.9l-48.85,48.85c-4.1,4.1-4.1,10.75,0,14.85,2.05,2.05,4.74,3.08,7.42,3.08s5.37-1.03,7.42-3.08l32.39-32.4v202.26c0,5.8,4.7,10.5,10.5,10.5s10.5-4.7,10.5-10.5V35.4l33.45,33.45c2.05,2.05,4.74,3.08,7.42,3.08s5.37-1.02,7.42-3.08c4.1-4.1,4.1-10.75,0-14.85Z"/></svg>