<?xml version="1.0" encoding="UTF-8"?><svg id="Layer_1" xmlns="http://www.w3.org/2000/svg" viewBox="0 0 250 250"><defs><style>.cls-1{fill:#010101;}</style></defs><path class="cls-1" d="M75.15,110c-5.8,0-10.5,4.7-10.5,10.5v40c0,5.8,4.7,10.5,10.5,10.5s10.5-4.7,10.5-10.5v-40c0-5.8-4.7-10.5-10.5-10.5Z"/><path class="cls-1" d="M122.15,60c-5.8,0-10.5,4.7-10.5,10.5v90c0,5.8,4.7,10.5,10.5,10.5s10.5-4.7,10.5-10.5v-90c0-5.8-4.7-10.5-10.5-10.5Z"/><path class="cls-1" d="M170.15,86c-5.8,0-10.5,4.7-10.5,10.5v64c0,5.8,4.7,10.5,10.5,10.5s10.5-4.7,10.5-10.5v-64c0-5.8-4.7-10.5-10.5-10.5Z"/><path class="cls-1" d="M124.98,8.21C56.11,8.21.07,58.01.07,119.24c0,19.92,5.96,39.33,17.26,56.36L.56,228.57c-1.17,3.69-.21,7.73,2.5,10.5,2,2.05,4.73,3.17,7.51,3.17.98,0,1.96-.14,2.93-.42l65.98-19.16c14.49,5.04,29.78,7.6,45.51,7.6,68.88,0,124.91-49.81,124.91-111.03S193.86,8.21,124.98,8.21ZM124.98,209.26c-14.41,0-28.35-2.51-41.45-7.46-.08-.03-.17-.05-.25-.08-.17-.06-.34-.11-.51-.17-.17-.05-.33-.09-.5-.14-.16-.04-.32-.07-.48-.1-.18-.04-.37-.07-.55-.09-.15-.02-.3-.04-.44-.05-.2-.02-.4-.03-.59-.04-.14,0-.28,0-.42,0-.21,0-.41,0-.62.02-.13,0-.27.02-.4.04-.21.02-.42.05-.63.08-.13.02-.26.05-.39.07-.21.04-.42.09-.62.15-.07.02-.14.03-.21.05l-50.39,14.63,12.26-38.73c.91-2.88.51-5.85-.85-8.29-.32-.93-.78-1.84-1.38-2.69-10.12-14.17-15.46-30.51-15.46-47.24,0-49.64,46.62-90.03,103.91-90.03s103.91,40.39,103.91,90.03-46.62,90.03-103.91,90.03Z"/></svg>