<?xml version="1.0" encoding="UTF-8"?><svg id="Layer_1" xmlns="http://www.w3.org/2000/svg" viewBox="0 0 250 250"><defs><style>.cls-1{fill:#010101;}</style></defs><path class="cls-1" d="M244.11,215.9l-41.42-41.42c-5.06-5.06-12.14-6.82-18.63-5.33l-35.32-35.32c10.87-14.04,17.37-31.63,17.37-50.72C166.11,37.35,128.87.11,83.1.11S.1,37.35.1,83.12s37.24,83.01,83,83.01c19.13,0,36.75-6.52,50.8-17.43l35.23,35.23c-1.58,6.55.17,13.73,5.28,18.84l41.42,41.42c3.91,3.91,9.02,5.86,14.14,5.86s10.24-1.95,14.14-5.86c7.81-7.81,7.81-20.47,0-28.29ZM83.1,145.12c-34.19,0-62-27.82-62-62.01s27.82-62.01,62-62.01,62.01,27.82,62.01,62.01-27.82,62.01-62.01,62.01Z"/></svg>