<?xml version="1.0" encoding="UTF-8"?><svg id="Layer_1" xmlns="http://www.w3.org/2000/svg" viewBox="0 0 250 250"><defs><style>.cls-1{fill:#010101;}</style></defs><path class="cls-1" d="M146.88,37.21c-22.85,0-41.44,18.59-41.44,41.44s18.59,41.44,41.44,41.44,41.44-18.59,41.44-41.44-18.59-41.44-41.44-41.44ZM146.88,99.1c-11.27,0-20.44-9.17-20.44-20.44s9.17-20.44,20.44-20.44,20.44,9.17,20.44,20.44-9.17,20.44-20.44,20.44Z"/><path class="cls-1" d="M223.41.04H70.84c-14.61,0-26.5,11.89-26.5,26.5v17.85h-17.74C11.91,44.39-.04,56.34-.04,71.02v152.3c0,14.69,11.95,26.64,26.64,26.64h152.3c14.69,0,26.64-11.95,26.64-26.64v-17.71h17.88c14.61,0,26.5-11.89,26.5-26.5V26.54C249.91,11.93,238.03.04,223.41.04ZM184.53,223.32c0,3.11-2.53,5.64-5.64,5.64H26.6c-3.11,0-5.64-2.53-5.64-5.64V71.02c0-3.11,2.53-5.64,5.64-5.64h17.74v113.73c0,14.61,11.89,26.5,26.5,26.5h113.7v17.71ZM183.53,184.62h-72.8v-3.02c0-12.89,9.32-23.38,20.77-23.38h31.27c11.45,0,20.77,10.49,20.77,23.38v3.02ZM228.91,179.12c0,3.03-2.47,5.5-5.5,5.5h-18.89v-3.02c0-24.47-18.74-44.38-41.77-44.38h-31.27c-23.03,0-41.77,19.91-41.77,44.38v3.02h-18.89c-3.03,0-5.5-2.47-5.5-5.5V26.54c0-3.03,2.47-5.5,5.5-5.5h152.58c3.03,0,5.5,2.47,5.5,5.5v152.58Z"/></svg>