<?xml version="1.0" encoding="UTF-8"?><svg id="Layer_1" xmlns="http://www.w3.org/2000/svg" viewBox="0 0 250 250"><defs><style>.cls-1{fill:#010101;}</style></defs><path class="cls-1" d="M124.05,48.78c-26.47,0-48,21.53-48,48s21.53,48,48,48,48-21.53,48-48-21.53-48-48-48ZM124.05,123.78c-14.89,0-27-12.11-27-27s12.11-27,27-27,27,12.11,27,27-12.11,27-27,27Z"/><path class="cls-1" d="M124.7.18C55.85.18-.15,56.19-.15,125.03s56.01,124.85,124.85,124.85,124.85-56.01,124.85-124.85S193.54.18,124.7.18ZM77.54,217.55c.55-16.31,12.56-29.39,27.25-29.39h37.78c14.99,0,27.19,13.62,27.28,30.39-13.66,6.62-28.98,10.34-45.16,10.34-16.97,0-33-4.09-47.16-11.34ZM189.41,206.2c-5.25-22.4-24.25-39.04-46.83-39.04h-37.78c-22.12,0-40.79,15.97-46.49,37.68-22.88-19.07-37.46-47.76-37.46-79.8,0-57.27,46.59-103.85,103.85-103.85s103.85,46.59,103.85,103.85c0,32.81-15.3,62.12-39.14,81.16Z"/></svg>