<svg width="28" height="29" viewBox="0 0 28 29" fill="none" xmlns="http://www.w3.org/2000/svg">
<path d="M14 0.5C21.7325 0.5 28 6.76752 28 14.5C28 22.2325 21.7325 28.5 14 28.5C6.26752 28.5 0 22.2325 0 14.5C0 6.76752 6.26752 0.5 14 0.5ZM13.9951 17.6631C10.0597 17.6633 6.85754 20.5514 6.85742 24.1016C6.85742 24.1363 6.8559 24.1705 6.85254 24.2041H6.85352C8.91197 25.7271 11.3972 26.5498 14.001 26.5498C16.605 26.5498 19.0833 25.7287 21.1396 24.21C21.1352 24.1743 21.1328 24.1384 21.1328 24.1016C21.1327 20.5513 17.9307 17.6631 13.9951 17.6631ZM13.999 2.45117C10.7813 2.45117 7.75532 3.70467 5.47949 5.98047C3.20365 8.25631 1.9502 11.2811 1.9502 14.5C1.9502 17.5138 3.04964 20.3585 5.05762 22.5771C5.83722 18.6764 9.54234 15.7111 13.9941 15.7109C18.4452 15.7109 22.1565 18.6797 22.9326 22.584C24.9454 20.3644 26.0479 17.5177 26.0479 14.5C26.0479 11.2823 24.7943 8.2563 22.5186 5.98047C20.2427 3.70466 17.2167 2.45121 13.999 2.45117ZM14 4.39355C16.6701 4.39355 18.8428 6.56625 18.8428 9.23633C18.8426 11.9063 16.67 14.0791 14 14.0791C11.33 14.0791 9.1574 11.9063 9.15723 9.23633C9.15723 6.56625 11.3299 4.39355 14 4.39355ZM14 6.35059C12.4085 6.35059 11.1152 7.64481 11.1152 9.23633C11.1154 10.8277 12.4097 12.1211 14 12.1211C15.5914 12.1211 16.8846 10.8277 16.8848 9.23633C16.8848 7.64481 15.5915 6.35059 14 6.35059Z" fill="white"/>
</svg>
