<?xml version="1.0" encoding="UTF-8"?><svg id="Layer_1" xmlns="http://www.w3.org/2000/svg" viewBox="0 0 250 250"><defs><style>.cls-1{fill:#010101;}</style></defs><path class="cls-1" d="M198.98,119.1c7.34-.72,17.79-4.93,31.08-18.22,23.55-23.55,19.26-57.36,19.07-58.79-.71-5.2-5.15-9.09-10.4-9.09h-36.24V10.5c0-5.8-4.7-10.5-10.5-10.5H57.99c-.17,0-.33.02-.5.03-.17,0-.33-.03-.5-.03-5.8,0-10.5,4.7-10.5,10.5v22.5H10.95c-5.25,0-9.7,3.88-10.4,9.09-.19,1.43-4.48,35.24,19.07,58.79,12.86,12.86,23.05,17.22,30.35,18.14,8.9,26.16,33.97,45.89,64.52,49.47v21.52h-45.68c-4.44,0-8.4,2.79-9.89,6.97l-13.93,39c-1.15,3.22-.66,6.79,1.3,9.58,1.97,2.79,5.17,4.45,8.58,4.45h140.55c3.42,0,6.62-1.66,8.58-4.45,1.97-2.79,2.45-6.36,1.3-9.58l-13.93-39c-1.49-4.18-5.45-6.97-9.89-6.97h-46v-21.64c30.06-3.89,54.67-23.43,63.5-49.27ZM180.52,229h-110.75l6.43-18h97.89l6.43,18ZM228.4,54c-.58,8.75-3.24,22.07-13.19,32.02-5.27,5.27-9.54,8.34-12.72,10.07v-42.1h25.92ZM21.27,54h25.22v41.7c-3.1-1.79-7.13-4.78-12.02-9.67-9.96-9.96-12.62-23.28-13.2-32.02ZM67.49,98.01V21h114v77.01c0,27.61-25.57,50.07-57,50.07s-57-22.46-57-50.07Z"/></svg>